<svg width="512" height="512" viewBox="0 0 512 512" fill="none" xmlns="http://www.w3.org/2000/svg">
<path d="M395.573 442.084V184.297H458.475V442.084H395.573Z" fill="#2ECC40"/>
<path d="M172.174 447.702C149.335 447.702 127.993 442.273 108.149 431.415C88.679 420.557 72.9534 405.018 60.9721 384.8C48.9907 364.581 43 340.431 43 312.35C43 285.392 48.0546 261.804 58.1639 241.585C68.6476 221.366 83.2499 205.641 101.971 194.408C121.066 183.176 143.718 177.56 169.928 177.56C185.653 177.56 199.881 180.368 212.611 185.984C225.716 191.226 236.574 197.778 245.186 205.641C254.172 213.129 260.162 220.43 263.158 227.544L264.281 184.299H322.128V442.086H264.843L263.719 396.594C259.975 404.831 253.61 412.881 244.624 420.744C236.012 428.607 225.529 435.159 213.173 440.401C200.817 445.268 187.151 447.702 172.174 447.702ZM182.283 397.156C196.137 397.156 208.68 393.973 219.912 387.608C231.519 380.868 240.693 371.508 247.432 359.527C254.546 347.545 258.103 333.317 258.103 316.843V312.912C258.103 296.063 254.546 281.46 247.432 269.105C240.693 256.374 231.519 246.64 219.912 239.9C208.68 232.786 196.137 229.229 182.283 229.229C157.197 229.229 138.289 237.279 125.559 253.379C113.203 269.479 107.025 289.323 107.025 312.912C107.025 336.874 113.203 356.906 125.559 373.006C138.289 389.106 157.197 397.156 182.283 397.156Z" fill="#2ECC40"/>
<path d="M463.259 72.0905C461.163 69.8426 458.674 68.0594 455.935 66.8428C453.196 65.6262 450.261 65 447.296 65C444.331 65 441.395 65.6262 438.656 66.8428C435.918 68.0594 433.429 69.8426 431.333 72.0905L426.983 76.7534L422.634 72.0905C418.4 67.552 412.658 65.0024 406.671 65.0024C400.684 65.0024 394.942 67.552 390.708 72.0905C386.475 76.6289 384.096 82.7844 384.096 89.2027C384.096 95.621 386.475 101.776 390.708 106.315L426.983 145.202L463.259 106.315C465.355 104.068 467.019 101.4 468.154 98.4642C469.289 95.528 469.873 92.3809 469.873 89.2027C469.873 86.0244 469.289 82.8773 468.154 79.9412C467.019 77.005 465.355 74.3373 463.259 72.0905Z" fill="#2ECC40"/>
</svg>
